<?xml version="1.0" encoding="UTF-8"?> <svg xmlns="http://www.w3.org/2000/svg" width="50" height="80" viewBox="0 0 50 80"><path fill="#68BC2E" fill-rule="evenodd" d="M25 0c13.785 0 25 11.177 25 24.914 0 2.592-.4 5.149-1.187 7.601l-.004.017-.01.037c-.014.045-.03.09-.05.134-.265.592-.527 1.18-.786 1.766-4.16 9.39-7.668 18.146-9.212 28.276-.246 1.616-1.324 2.902-2.764 3.456v8.608c0 2.862-2.337 5.191-5.208 5.191H19.22c-2.872 0-5.208-2.329-5.208-5.19V66.2c-1.44-.553-2.518-1.839-2.764-3.455C9.704 52.608 6.19 43.848 2.029 34.45c-.257-.58-.516-1.161-.778-1.747l-.008-.02-.016-.042c-.01-.024-.018-.048-.026-.072l-.01-.037-.004-.016-.007-.023C.397 30.047 0 27.498 0 24.914 0 11.177 11.215 0 25 0zm8.644 66.497H16.356v1.913h2.8c.647 0 1.172.523 1.172 1.168 0 .644-.525 1.167-1.172 1.167h-2.8v2.542h2.8c.647 0 1.172.523 1.172 1.168 0 .644-.525 1.167-1.172 1.167h-2.68c.352 1.18 1.449 2.043 2.745 2.043H30.78c1.296 0 2.393-.863 2.745-2.043h-8.917c-.646 0-1.17-.523-1.17-1.167 0-.645.524-1.168 1.17-1.168h9.037v-2.542h-9.037c-.647 0-1.171-.523-1.171-1.167 0-.645.524-1.168 1.171-1.168h9.037v-1.913zm12.161-32.938l-.562.043-1.176.09-1.54.11-1.187.078-1.54.093-1.183.066c-.52.027-1.04.052-1.559.077l-1.164.053c-.532.022-1.064.042-1.597.06-.375.014-.75.029-1.124.04-.56.018-1.119.032-1.678.047-.348.008-.697.019-1.045.026-.62.013-1.239.022-1.858.03l-.867.014c-1.816.019-3.632.019-5.448 0-.296-.003-.593-.01-.889-.014-.611-.008-1.223-.017-1.834-.03-.356-.007-.713-.018-1.069-.027-.55-.014-1.101-.028-1.652-.045-.381-.012-.763-.027-1.144-.04l-1.578-.061c-.393-.017-.785-.035-1.178-.054-.515-.024-1.03-.05-1.545-.076-.398-.021-.795-.044-1.192-.067-.511-.03-1.022-.06-1.534-.092l-1.19-.079c-.513-.035-1.024-.072-1.536-.11-.395-.029-.789-.059-1.183-.09l-.558-.042.051.117.036.08.002.004c4.183 9.459 7.708 18.311 9.28 28.635.142.922.855 1.614 1.75 1.743l.026.003.143.015c.044.003.087.006.132.006h18.77c.045 0 .089-.003.132-.006.044-.003.09-.008.143-.015l.028-.003c.893-.129 1.607-.821 1.747-1.743 1.573-10.324 5.098-19.176 9.281-28.635l.002-.004.035-.08zM13.34 40.68c.632-.14 1.257.257 1.398.887l3.219 14.441c.14.63-.258 1.253-.89 1.393-.086.02-.17.028-.255.028-.537 0-1.021-.37-1.142-.914l-3.22-14.442c-.14-.63.259-1.253.89-1.393zm7.72-.024c.648-.046 1.208.435 1.255 1.078l1.073 14.442c.048.643-.436 1.202-1.082 1.25l-.087.003c-.608 0-1.122-.468-1.167-1.081l-1.073-14.442c-.048-.643.436-1.202 1.082-1.25zm14.044.911c.14-.63.766-1.027 1.398-.887.631.14 1.03.764.89 1.393l-3.22 14.442c-.12.544-.605.914-1.142.914-.084 0-.17-.009-.255-.028-.632-.14-1.03-.763-.89-1.393zm-6.447-.913l.128.002c.645.047 1.13.607 1.081 1.25l-1.073 14.442c-.045.613-.559 1.081-1.167 1.081l-.087-.003c-.645-.048-1.13-.608-1.082-1.25l1.073-14.442c.048-.643.61-1.124 1.255-1.078zM24.999 2.335c-12.493 0-22.657 10.13-22.657 22.58 0 2.113.293 4.2.871 6.216.39.034.78.065 1.169.097.43.035.859.071 1.289.104.491.037.984.07 1.476.105.426.03.851.061 1.277.09.499.032.997.06 1.496.09.42.024.841.051 1.262.074.508.027 1.016.05 1.524.075.412.02.824.042 1.236.06.523.022 1.046.04 1.57.06.397.015.794.031 1.192.044.55.018 1.1.031 1.65.046.371.01.742.021 1.114.03.61.013 1.222.02 1.833.03.31.004.622.011.933.014.92.01 1.84.016 2.759.016.929 0 1.85-.006 2.773-.016.306-.003.613-.01.92-.014.615-.01 1.23-.017 1.846-.03l1.102-.03c.554-.014 1.108-.028 1.662-.046.394-.012.788-.03 1.181-.044.528-.02 1.055-.038 1.582-.06.408-.018.817-.04 1.225-.06.512-.024 1.023-.048 1.535-.075.418-.023.836-.05 1.253-.074.502-.03 1.003-.058 1.504-.091.424-.028.848-.059 1.272-.089.494-.034.988-.068 1.481-.105.43-.033.858-.07 1.287-.104.39-.032.78-.063 1.17-.097.578-2.015.871-4.103.87-6.216 0-12.45-10.164-22.58-22.657-22.58z"></path></svg> 