<?xml version="1.0" encoding="UTF-8"?> <svg xmlns="http://www.w3.org/2000/svg" width="58" height="80" viewBox="0 0 58 80"><path fill="#68BC2E" fill-rule="evenodd" d="M18.683 0c1.208 0 2.23 1.03 2.23 2.246v5.052c0 1.03-.743 1.965-1.766 2.152v.749c0 1.497.093 1.59.93 1.778.744.187 1.859.467 3.16 1.684 2.603 2.526 4.369 6.924 4.369 11.134v51.837c0 1.87-1.487 3.368-3.346 3.368H3.346C1.487 80 0 78.503 0 76.632V24.889C0 20.585 1.859 16 4.647 13.567c1.302-1.123 2.417-1.403 3.16-1.684.93-.28 1.023-.374 1.023-1.965v-.374C7.715 9.357 6.785 8.42 6.785 7.298V2.246C6.785 1.029 7.808 0 9.016 0zm30.301 0c1.208 0 2.23 1.03 2.23 2.246v5.052c0 1.03-.743 1.965-1.765 2.152v.749c0 1.497.093 1.59.93 1.778.743.187 1.951.467 3.252 1.684C56.234 16.187 58 20.585 58 24.795v51.837C58 78.502 56.513 80 54.654 80H33.74c-1.859 0-3.346-1.497-3.346-3.368V24.889c0-4.304 1.86-8.889 4.648-11.322 1.3-1.123 2.416-1.403 3.16-1.684.93-.28 1.022-.374 1.022-1.965v-.374C38.11 9.357 37.18 8.42 37.18 7.298V2.246C37.18 1.029 38.202 0 39.41 0zM17.103 9.544h-6.507v.28c0 2.808-.93 3.275-2.324 3.743-.65.187-1.487.468-2.416 1.31-2.324 2.152-3.997 6.176-3.997 9.918v51.837c0 .842.65 1.497 1.487 1.497H24.26c.836 0 1.487-.655 1.487-1.497h-.093V24.795c0-3.649-1.58-7.672-3.811-9.73-.93-.936-1.766-1.123-2.417-1.31-1.394-.375-2.323-.843-2.323-3.556v-.655zm30.394 0H40.99v.28c0 2.808-.93 3.275-2.323 3.743-.651.187-1.488.468-2.417 1.31-2.324 2.152-3.997 6.176-3.997 9.918v51.837c0 .842.65 1.497 1.487 1.497h20.914c.836 0 1.487-.655 1.487-1.497h-.093V24.795c0-3.649-1.58-7.672-3.81-9.73-.93-.936-1.767-1.123-2.417-1.31-1.395-.375-2.324-.843-2.324-3.556v-.655zM18.59 1.778h-1.673v5.801h1.673c.186 0 .372-.187.372-.374V2.152c0-.187-.186-.374-.372-.374zm-3.44 0h-2.416v5.801h2.417V1.778zm-4.368 0H9.016c-.186 0-.372.187-.372.374v5.053c0 .187.186.374.372.374h1.766V1.778zm38.202 0h-1.673v5.801h1.673c.186 0 .372-.187.372-.374V2.152c0-.187-.186-.374-.372-.374zm-3.532 0h-2.417v5.801h2.417V1.778zm-4.276 0H39.41c-.186 0-.372.187-.372.374v5.053c0 .187.186.374.372.374h1.766V1.778z"></path></svg> 