<?xml version="1.0" encoding="UTF-8"?> <svg xmlns="http://www.w3.org/2000/svg" width="61" height="80" viewBox="0 0 61 80"><path fill="#68BC2E" fill-rule="evenodd" d="M23.713 16.165c-2.376-2.422-6.09-3.741-10.742-3.815-4.218-.062-8.403.749-12.289 2.38-.569.24-.834.892-.593 1.457.096.223.262.41.474.53 2.39 1.38 4.238 3.525 5.24 6.084.26.679.462 1.386.676 2.134.159.556.323 1.13.514 1.696.291.916.703 1.79 1.225 2.598 1.744 2.616 4.63 4.1 7.87 4.1 3.384-.003 6.574-1.572 8.626-4.245 1.467 1.4 2.787 2.944 3.94 4.609.061.16.158.306.285.423 1.395 2.08 2.37 4.41 2.873 6.86 1.14 5.861-.928 12.159-6.144 18.736-2.723-4.15-8.255-5.43-12.545-2.905l-8.93 5.273c-.532.313-.706.995-.39 1.522l1.8 3.009-4.36 2.574c-.534.307-.717.987-.407 1.518s.993.713 1.528.405l.023-.013 4.359-2.574 3.601 6.017-4.36 2.574c-.533.309-.714.99-.403 1.52.311.53.996.71 1.53.4l.017-.01 4.36-2.574 1.8 3.008c.315.528 1.002.701 1.533.388l8.93-5.273c4.41-2.61 5.86-8.273 3.243-12.658l-.101-.17c6.028-7.338 8.422-14.464 7.113-21.189-.552-2.711-1.626-5.292-3.164-7.599.232-2.808.77-5.583 1.604-8.275 2.39 1.82 5.307 2.827 8.318 2.872l.235.002c4.687 0 8.727-2.307 10.84-6.203.575-1.1 1-2.27 1.266-3.48.182-.759.329-1.53.47-2.277.193-1.019.375-1.982.64-2.92 1.033-3.568 3.256-6.682 6.305-8.83.506-.352.629-1.045.274-1.548-.14-.198-.341-.346-.574-.42C54.96.206 49.403-.357 43.907.219c-6.02.642-10.667 2.775-13.442 6.17-3.197 3.99-3.805 9.448-1.565 14.036.466.93 1.053 1.795 1.744 2.574-.808 2.379-1.397 4.825-1.758 7.31-.945-1.134-1.96-2.209-3.039-3.218.024-.058.05-.115.072-.174 1.408-3.707.55-7.888-2.206-10.752zm-1.1 56.497l-7.969 4.704L8.1 66.432l-1.801-3.01 7.969-4.705c3.353-1.975 7.682-.881 9.678 2.445l1.129 1.886c1.988 3.33.887 7.63-2.462 9.613zm9.59-64.871c3.025-3.702 8.164-4.959 11.943-5.362 1.308-.138 2.622-.208 3.937-.207 3.174 0 6.335.397 9.41 1.183-2.597 2.322-4.48 5.328-5.428 8.668-.293 1.034-.493 2.09-.686 3.112-.143.754-.278 1.466-.447 2.173-.222 1.022-.578 2.01-1.06 2.94-1.714 3.163-5.022 5.035-8.873 5.035-.064 0-.13 0-.195-.002-2.792-.034-5.48-1.06-7.577-2.891.063-.164.127-.327.193-.491 3.115-7.692 8.28-12.355 15.353-13.86.605-.124.995-.71.87-1.312-.123-.601-.715-.989-1.32-.865l-.02.004c-7.562 1.61-13.334 6.672-16.728 14.655-.25-.363-.474-.741-.671-1.134-1.838-3.673-1.304-8.462 1.299-11.646zM12.616 17.969c-.545-.29-1.223-.086-1.515.455-.291.541-.086 1.215.459 1.504 4.596 2.444 8.428 4.99 11.495 7.641-1.316 1.903-3.544 3.22-6.049 3.487-2.855.306-5.444-.836-6.923-3.055-.413-.648-.739-1.347-.97-2.079-.173-.515-.323-1.04-.482-1.594-.218-.762-.443-1.55-.739-2.32-.902-2.34-2.413-4.4-4.378-5.972 3.034-1.016 6.22-1.511 9.42-1.465 2.823.045 6.707.628 9.177 3.144 1.954 1.992 2.703 5.104 1.93 7.776-3.114-2.617-6.922-5.125-11.425-7.522z"></path></svg> 