<?xml version="1.0" encoding="UTF-8"?> <svg xmlns="http://www.w3.org/2000/svg" width="88" height="120" viewBox="0 0 88 120"><g fill-rule="evenodd" opacity=".25"><path d="M65.405 75.18c.853 0 1.546-.698 1.546-1.555 0-.856-.693-1.553-1.546-1.553-.852 0-1.546.697-1.546 1.553 0 .857.694 1.554 1.546 1.554M65.405 105.299c.853 0 1.546-.697 1.546-1.554 0-.857-.693-1.554-1.546-1.554-.852 0-1.546.697-1.546 1.554 0 .857.694 1.554 1.546 1.554M51.135 75.18c.853 0 1.546-.698 1.546-1.555 0-.856-.693-1.553-1.546-1.553-.852 0-1.546.697-1.546 1.553 0 .857.694 1.554 1.546 1.554M51.135 105.299c.853 0 1.546-.697 1.546-1.554 0-.857-.693-1.554-1.546-1.554-.852 0-1.546.697-1.546 1.554 0 .857.694 1.554 1.546 1.554"></path><path d="M11.892 43.028c-5.246 0-9.514-4.29-9.514-9.562 0-5.272 4.268-9.562 9.514-9.562h3.567c.656 0 1.19-.536 1.19-1.195 0-11.204 9.069-20.319 20.216-20.319 6.058 0 11.767 2.78 15.662 7.624.318.396.851.546 1.327.373 1.536-.555 2.98-.825 4.416-.825 7.213 0 13.081 5.898 13.081 13.147 0 .66.534 1.195 1.19 1.195h3.567c5.246 0 9.514 4.29 9.514 9.562 0 5.272-4.268 9.562-9.514 9.562H11.892zM9.514 87.49h68.972V59.761H9.514V87.49zm0 30.12h68.972V89.88H9.514v27.73zm66.594-72.192C82.665 45.418 88 40.057 88 33.466c0-6.59-5.335-11.952-11.892-11.952H73.72l-.146-1.025C72.487 12.897 65.909 7.17 58.27 7.17c-1.246 0-2.468.164-3.735.5l-.691.184-.486-.529C49.017 2.602 43.16 0 36.865 0c-5.63 0-11.029 2.103-15.2 5.922-4.144 3.794-6.73 8.948-7.282 14.516l-.108 1.076h-2.383C5.335 21.514 0 26.876 0 33.466s5.335 11.952 11.892 11.952H42.81v11.953H8.324c-.655 0-1.189.536-1.189 1.195v60.239c0 .659.534 1.195 1.19 1.195h71.35c.656 0 1.19-.536 1.19-1.195v-60.24c0-.658-.534-1.194-1.19-1.194H45.19V45.418h30.92z"></path></g></svg> 