<?xml version="1.0" encoding="UTF-8"?> <svg xmlns="http://www.w3.org/2000/svg" width="618" height="462" viewBox="0 0 618 462"><path fill="#FFF" fill-rule="evenodd" d="M385.84 127.269c47.615-47.791 142.246-54.385 209.286-55.187L602 72l-.082 6.9c-.796 67.301-7.364 162.3-54.985 210.067l.002-.002C529.728 306.235 501.128 316 468.048 316c-1.251 0-2.51-.012-3.774-.042-32.511-.722-62.566-11.065-78.433-26.993-1.006-1.007-2.029-2.118-3.037-3.294l-3.604-4.206 3.421-4.357c29.685-37.82 67.62-67.79 112.749-89.074l.015.032c.729-.411 1.513-.78 2.309-1.155 3.923-1.866 4.063-6.167 2.451-9.596-1.66-3.547-7.146-5.055-11.288-3.123-43.685 20.616-80.944 48.843-110.717 83.888l-7.652 9.004-3.809-11.198c-13.639-40.079-10.2-99.145 19.162-128.617zM235.954 228.905l-5.69-9.368c-33.265-54.742-69.269-79.484-90.781-94.266l-2.32-1.588c-3.779-2.576-6.763-4.611-8.852-6.678-1.465-1.472-3.374-2.264-5.408-2.264-2.035 0-3.945.792-5.377 2.23-2.964 2.977-2.964 7.82 0 10.797 2.585 2.57 7.964 6.374 13.388 10.1 19.915 13.672 56.986 39.124 89.718 95.457L224 239.12l-5.757 3.405C200.55 252.998 175.45 259 149.986 259c-2.304 0-4.61-.05-6.915-.148-30.493-1.316-56.073-10.863-72.028-26.883C23.446 184.176 16.88 89.19 16.082 21.9L16 15l6.872.082c67.013.8 161.609 7.393 209.206 55.187 16.159 16.225 25.681 42.276 26.814 73.355 1.034 28.385-5.394 56.776-17.194 75.947l-5.745 9.334zm134.32 64.778l5.883 5.747c19.695 19.232 55.195 31.18 92.648 31.18 36.772 0 69.446-11.547 89.64-31.68C611.828 245.55 618 139.453 618 64.293c0-2.032-.792-3.942-2.231-5.38-1.44-1.44-3.352-2.232-5.384-2.232-75.214 0-181.386 6.17-234.773 59.527-38.601 38.557-39.508 113.75-16.138 159.79l1.815 3.573-2.286 3.293c-23.995 34.579-42.293 75.25-54.386 120.886l-8.24 31.084-4.9-31.78c-9.332-60.532-25.066-113.33-46.765-156.932l-2.003-4.027 2.963-3.387c17.552-20.056 28.187-53.092 28.445-88.37.274-37.297-11.29-70.396-31.727-90.81C188.975 6.172 82.818 0 7.616 0 3.416 0 0 3.415 0 7.61c0 75.174 6.174 181.285 59.562 234.643 20.16 20.149 52.82 31.705 89.607 31.705 27.56 0 54.976-6.65 75.218-18.248l6.283-3.599 3.122 6.531c26.002 54.398 42.52 122.414 49.335 203.307.01.115.028 0 .028 0s25.058.02 25.06 0c9.188-62.333 28.451-116.187 57.598-161.356l4.46-6.91z"></path></svg> 