<?xml version="1.0" encoding="UTF-8"?> <svg xmlns="http://www.w3.org/2000/svg" width="100" height="120" viewBox="0 0 100 120"><g fill-rule="evenodd" opacity=".25"><path d="M55.33 54.684v-4.81c0-2.653 2.163-4.81 4.822-4.81 2.66 0 4.823 2.157 4.823 4.81 0 2.652-2.164 4.81-4.823 4.81H55.33zm23.607 6.855c-3.09 7.623-9.183 13.793-16.764 17v.007l-.474.193c-1.758.714-3.594 1.264-5.46 1.633l-.91.18V57.216h4.823c4.059 0 7.36-3.293 7.36-7.342 0-4.048-3.301-7.341-7.36-7.341-4.058 0-7.36 3.293-7.36 7.341v4.81h-5.584v-4.81c0-4.048-3.302-7.341-7.36-7.341-4.059 0-7.36 3.293-7.36 7.341 0 4.049 3.301 7.342 7.36 7.342h4.822v23.339l-.91-.182c-1.867-.371-3.706-.922-5.468-1.637-15.957-6.436-23.691-24.622-17.24-40.54 3.126-7.711 9.075-13.747 16.752-16.995 7.676-3.248 16.162-3.32 23.892-.202 7.731 3.117 13.782 9.051 17.039 16.709 3.256 7.657 3.328 16.12.202 23.832zm-31.729 19.32V57.215h5.584V80.86l-.712.047c-.69.045-1.385.068-2.08.068-.695 0-1.39-.023-2.08-.068l-.712-.047zM44.67 54.684h-4.822c-2.66 0-4.823-2.158-4.823-4.81 0-2.653 2.164-4.81 4.823-4.81 2.659 0 4.822 2.157 4.822 4.81v4.81zm18.274 31.645c0 1.536-1.252 2.785-2.792 2.785H39.848c-1.54 0-2.792-1.25-2.792-2.785 0-1.535 1.252-2.785 2.792-2.785h20.304c1.54 0 2.792 1.25 2.792 2.785zm-2.792 10.886H39.848c-1.54 0-2.792-1.25-2.792-2.785 0-1.535 1.252-2.784 2.792-2.784h20.304c1.54 0 2.792 1.249 2.792 2.784 0 1.536-1.252 2.785-2.792 2.785zm0 8.101H39.848c-1.54 0-2.792-1.249-2.792-2.784 0-1.536 1.252-2.785 2.792-2.785h20.304c1.54 0 2.792 1.25 2.792 2.785 0 1.535-1.252 2.784-2.792 2.784zm-3.3 5.317c0 3.769-3.073 6.835-6.852 6.835-3.779 0-6.853-3.066-6.853-6.835v-2.785h13.706v2.785zm26.904-60.76c.007-8.994-3.497-17.452-9.868-23.817-6.37-6.364-14.845-9.873-23.862-9.88H50c-9.007 0-17.475 3.495-23.85 9.843-6.38 6.355-9.898 14.807-9.905 23.801-.01 13.438 7.969 25.574 20.329 30.919l1.233.533-1.092.78c-2.358 1.688-2.901 4.974-1.21 7.326.123.17.256.335.397.489l.473.514-.473.513c-1.83 1.983-1.83 5.09 0 7.073l.472.512-.47.514c-.955 1.044-1.445 2.396-1.38 3.808.065 1.411.677 2.713 1.724 3.665.98.892 2.248 1.382 3.574 1.382h.023l.765-.003v2.788c0 5.165 4.213 9.367 9.391 9.367s9.39-4.202 9.39-9.367v-2.788l.766.003h.023c2.914 0 5.29-2.358 5.304-5.267.006-1.33-.486-2.605-1.386-3.588l-.47-.514.472-.512c1.83-1.983 1.83-5.09 0-7.073l-.473-.513.473-.514c.95-1.034 1.44-2.375 1.378-3.776-.061-1.4-.665-2.694-1.702-3.642-.155-.141-.32-.275-.488-.396l-1.098-.784 1.24-.531c12.386-5.304 20.365-17.418 20.327-30.863v-.002zM50 0c-.7 0-1.269.568-1.269 1.266v8.101c0 .698.57 1.266 1.269 1.266.7 0 1.269-.568 1.269-1.266V1.266C51.269.568 50.699 0 50 0M14.653 16.406l5.735 5.72c.245.253.561.39.9.396.344.004.66-.12.904-.355s.381-.55.387-.888c.006-.339-.12-.659-.356-.902l-.033-.033-5.752-5.737c-.229-.22-.54-.346-.871-.346h-.023c-.339.006-.655.143-.89.386-.478.493-.478 1.266 0 1.759M9.39 48.608H1.27c-.7 0-1.269.567-1.269 1.265s.57 1.266 1.269 1.266h8.122c.7 0 1.269-.568 1.269-1.266 0-.698-.57-1.265-1.27-1.265M14.247 84.248c-.005.338.121.658.357.901.486.502 1.29.517 1.794.031l.03-.03 5.754-5.74c.254-.244.391-.56.397-.897.006-.338-.12-.659-.356-.902-.235-.243-.552-.38-.89-.386h-.023c-.33 0-.643.125-.881.355l-5.785 5.77c-.253.245-.39.56-.397.898M83.562 85.14c.245.252.56.39.9.395.347-.003.66-.12.903-.355.504-.485.518-1.288.032-1.79l-.041-.04-5.744-5.73c-.245-.252-.561-.39-.9-.395h-.023c-.33 0-.642.125-.88.355-.245.235-.382.55-.388.889-.006.338.12.658.356.9l5.785 5.77zM98.731 48.608h-8.122c-.7 0-1.269.567-1.269 1.265s.57 1.266 1.27 1.266h8.121c.7 0 1.269-.568 1.269-1.266 0-.698-.57-1.265-1.269-1.265M77.42 21.234c-.005.338.122.658.357.902.236.243.552.38.89.386.338.005.66-.12.905-.355l.034-.035 5.75-5.735c.253-.245.39-.56.397-.898.006-.338-.12-.658-.356-.902-.249-.256-.581-.385-.913-.385-.318 0-.636.118-.882.355l-.03.03-5.754 5.74c-.254.244-.391.56-.397.897"></path></g></svg> 