<?xml version="1.0" encoding="UTF-8"?> <svg xmlns="http://www.w3.org/2000/svg" width="64" height="80" viewBox="0 0 64 80"><path fill="#68BC2E" fill-rule="evenodd" d="M57.362 0c2.202.008 3.98 1.799 3.971 4v4.03c1.674 1.25 2.662 3.214 2.667 5.303V16c0 .736-.597 1.333-1.333 1.333h-4.108l-3.555 41.77c4.526 1.338 7.635 5.492 7.644 10.211C62.658 75.205 57.89 79.99 52 80H12c-.694.002-1.274-.528-1.333-1.22L5.44 17.333H1.333C.597 17.333 0 16.736 0 16v-2.667c.004-3.68 2.987-6.662 6.667-6.666h1.466c.638-3.102 3.367-5.33 6.534-5.334h39.706c.76-.852 1.848-1.337 2.99-1.333zM52 61.333c-4.418 0-8 3.582-8 8 0 4.419 3.582 8 8 8s8-3.581 8-8c-.004-3.893-2.81-7.218-6.648-7.876-.446-.08-.899-.121-1.352-.124zm3.881-44H8.12l5.1 59.984h31.733c-.076-.066-.144-.144-.217-.213-.147-.136-.295-.273-.428-.417-.11-.115-.216-.234-.322-.354-.13-.149-.257-.3-.378-.457-.099-.125-.195-.25-.287-.383-.116-.161-.225-.326-.332-.496-.085-.133-.17-.266-.248-.4-.1-.17-.193-.35-.284-.533-.07-.14-.14-.28-.204-.424-.085-.19-.159-.385-.232-.58-.055-.145-.112-.287-.16-.435-.068-.208-.123-.422-.177-.636-.036-.141-.079-.28-.11-.424-.052-.241-.086-.486-.121-.733-.017-.123-.043-.243-.056-.368-.595-5.462 3.064-10.48 8.447-11.581h.014c.287-.058.578-.099.871-.134.092-.01.183-.024.276-.032.217-.02.439-.033.66-.033.113-.004.223-.017.336-.017.064 0 .13.006.19.006h.174l3.517-41.34zm-3.881 48c2.21 0 4 1.791 4 4 0 2.21-1.79 4-4 4s-4-1.79-4-4c0-2.209 1.79-4 4-4zM52 68c-.736 0-1.333.597-1.333 1.333 0 .737.597 1.334 1.333 1.334s1.333-.597 1.333-1.334c0-.736-.597-1.333-1.333-1.333zm-9.956-23.846c.598-.316 1.349-.135 1.732.44l2.667 4c.146.218.224.476.224.74 0 .736-.597 1.333-1.334 1.333H32.552l1.724 1.724c.5.516.5 1.336 0 1.852-.512.53-1.356.545-1.885.033l-4-4c-.52-.52-.52-1.365 0-1.885l4-4c.516-.5 1.336-.5 1.852 0 .53.511.545 1.355.033 1.885L32.552 48h10.29l-1.285-1.927c-.408-.613-.243-1.44.37-1.85zM26.667 36c.612 0 1.146.416 1.294 1.01l1.334 5.333c.179.714-.255 1.438-.97 1.617-.106.027-.215.04-.325.04-.612.003-1.148-.412-1.299-1.005l-.716-2.862L21.067 48H24c.736 0 1.333.597 1.333 1.333 0 .737-.597 1.334-1.333 1.334h-5.333c-.25 0-.495-.07-.707-.203-.625-.39-.814-1.213-.424-1.837l6.225-9.96h-2.428c-.736 0-1.333-.597-1.333-1.334 0-.736.597-1.333 1.333-1.333zm4.534-9.043c.625-.44 1.49-.29 1.93.336l6.194 9.907.715-2.857c.182-.706.897-1.135 1.606-.963.715.174 1.155.895.98 1.61l-1.333 5.334c-.148.593-.682 1.01-1.293 1.01h-5.333c-.737 0-1.334-.598-1.334-1.334 0-.736.597-1.333 1.334-1.333h2.428L32 30.516l-1.536 2.457-.078.112c-.414.534-1.174.678-1.76.312l-.113-.078c-.535-.414-.68-1.173-.316-1.76l2.667-4.266c.092-.13.206-.244.337-.336zM57.333 9.333H6.667c-2.21 0-4 1.791-4 4v1.334h58.666v-1.334c0-2.209-1.79-4-4-4zm0-6.666C56.597 2.667 56 3.264 56 4v2.667h2.667V4c0-.736-.597-1.333-1.334-1.333zm-4 1.333H14.667c-1.695.002-3.205 1.07-3.772 2.667h42.438V4z"></path></svg> 