<?xml version="1.0" encoding="UTF-8"?> <svg xmlns="http://www.w3.org/2000/svg" width="132" height="96" viewBox="0 0 132 96"><g fill="none" fill-rule="evenodd" opacity=".25"><path fill="#000" d="M0 0v82.643h51.2v10.853H35.617V96h64.835v-2.504H80.417V82.643h51.2V0H0zm2.504 80.14h126.609V2.503H2.504V80.14zm51.2 13.356h24.209V82.643H53.704v10.853z"></path><g fill-rule="nonzero"><g fill="#000"><g><path d="M38.833.006c.09 0 .18.038.243.1.064.064.102.151.102.24V8.38c0 .088-.038.176-.102.239s-.153.1-.243.1H28.286c-.09 0-.18-.037-.243-.1-.064-.063-.102-.15-.102-.239V.345c0-.088.038-.175.102-.238s.153-.1.243-.1h10.547m-2.295 1.82h-5.964c-.057 0-.121.025-.166.069-.045.044-.07.1-.07.163v4.627c0 .057.025.12.07.163.045.044.102.07.166.07h5.964c.058 0 .122-.026.167-.07.044-.044.07-.1.07-.163V2.06c0-.056-.026-.12-.07-.163-.045-.044-.103-.07-.167-.07zM26.739 0H16.051c-.09 0-.179.038-.25.1-.063.063-.102.151-.102.239v1.136c0 .088.039.176.103.239s.153.1.25.1h6.29l-6.579 6.542c-.038.044-.064.1-.057.163 0 .057.025.113.07.157.045.038.102.063.16.063h10.688c.09 0 .179-.038.243-.1.064-.063.102-.151.102-.239V7.264c0-.088-.038-.176-.102-.239s-.154-.1-.243-.1h-6.29L26.912.377c.038-.044.063-.1.057-.164 0-.056-.025-.113-.07-.156-.045-.038-.102-.057-.16-.057zM12.273.358c0-.088.039-.176.102-.239.064-.062.154-.1.243-.1h1.714c.089 0 .179.038.242.1.064.063.103.151.103.239v8.036c0 .088-.039.176-.103.238-.063.063-.153.1-.242.1h-1.714c-.09 0-.179-.037-.243-.1-.063-.062-.102-.15-.102-.238V.358zM2.397 6.548V5.274h8.49c.089 0 .178-.038.242-.1.064-.064.102-.152.102-.24V3.799c0-.088-.038-.176-.102-.238-.064-.063-.153-.1-.243-.1H2.397V2.064c0-.056.026-.119.07-.163.045-.044.103-.069.167-.069l.262-.006h7.996c.09 0 .18-.038.243-.1.064-.063.103-.151.103-.24V.353c0-.088-.039-.176-.103-.239s-.153-.1-.243-.1H.345c-.09 0-.179.037-.243.1S0 .263 0 .352v8.035c0 .088.038.176.102.239s.154.1.243.1h10.547c.09 0 .18-.037.243-.1.064-.063.103-.15.103-.239V7.251c0-.088-.039-.176-.103-.238-.064-.063-.153-.1-.243-.1H2.87l-.243-.007c-.057 0-.121-.025-.166-.07-.045-.043-.07-.1-.07-.162l.006-.126z" transform="translate(29 28) translate(30.875 9.668)"></path><g><path d="M.876 0C.39 0 0 .383 0 .86s.39.86.876.86.875-.383.875-.86S1.361 0 .876 0zm0 1.645c-.441 0-.8-.352-.8-.785 0-.433.359-.785.8-.785.44 0 .799.352.799.785 0 .433-.358.785-.8.785z" transform="translate(29 28) translate(30.875 9.668) translate(40.08)"></path><path d="M.7.501h.468c.066 0 .122.008.16.023.075.032.113.086.113.172 0 .077-.029.132-.075.163-.057.031-.122.047-.216.047H.708V.5H.7zm0 1.042v-.505h.44c.075 0 .141.008.17.023.065.023.102.078.102.156l.01.194c0 .047.01.078.01.093 0 .016.009.032.018.04h.235V1.52c-.028-.008-.047-.031-.066-.07-.01-.023-.01-.054-.01-.101L1.6 1.193c0-.07-.019-.116-.047-.147-.028-.032-.065-.055-.122-.07.066-.024.113-.063.15-.11.038-.046.057-.1.057-.17 0-.133-.066-.226-.197-.28-.066-.024-.16-.04-.273-.04H.511v1.167H.7z" transform="translate(29 28) translate(30.875 9.668) translate(40.08)"></path></g></g><path d="M5.606 11.134L8.545 11.161 8.699 28.177 5.759 28.15z" transform="translate(29 28) rotate(-45 7.152 19.656)"></path><path d="M28.49 13.228L28.49 15.331 26.349 15.331 26.349 17.434 24.208 17.434 24.208 19.537 22.066 19.537 22.066 21.64 19.925 21.64 19.925 23.75 17.783 23.75 17.783 25.853 15.642 25.853 15.642 27.956 13.501 27.956 12.171 26.65 14.274 24.591 27.161 11.928zM17.572 5.45l1.496-1.47 1.496 1.47-1.496 1.468 1.502 1.476 1.496-1.47L23.568 8.4l-1.495 1.47 1.495 1.468 1.496-1.469 1.502 1.47L14.274 23.41 2.73 12.079c-.026-.32.031-.64.172-.923.14-.289.358-.534.633-.703.275-.176.588-.276.914-.289.454-.019.876-.2 1.195-.515.32-.314.505-.734.525-1.174.019-.445.204-.86.524-1.174.32-.314.748-.496 1.195-.514.454-.02.876-.201 1.195-.515.32-.314.505-.735.525-1.174.019-.446.204-.86.524-1.174.32-.314.748-.496 1.195-.515.454-.019.876-.2 1.196-.515.32-.314.504-.734.524-1.174.012-.32.115-.628.294-.898s.428-.483.716-.621c.294-.138.62-.201.94-.17L17.54 2.53 16.045 4l1.527 1.45-1.502 1.475-1.496-1.476-1.502 1.476 1.496 1.469-1.502 1.475L11.57 8.4l-1.502 1.475 1.496 1.47 1.502-1.476 1.496 1.47-1.503 1.474 1.503 1.476 1.502-1.476 1.502 1.476-1.502 1.475 1.496 1.47 1.502-1.476-1.496-1.47 1.502-1.475 1.496 1.47 1.502-1.476-1.496-1.469-1.502 1.475-1.502-1.475-1.502 1.475-1.502-1.475 1.502-1.475 1.502 1.475 1.502-1.475-1.502-1.476-1.502 1.476-1.496-1.47 1.502-1.475 1.496 1.47 1.502 1.475 1.502 1.475 1.503-1.475-1.503-1.476-1.502 1.476-1.502-1.476 1.502-1.475-1.496-1.463z" transform="translate(29 28)"></path></g><path fill="#FFF" d="M26.774 11.455L14.587 23.048 3.141 12.166 2.545 12.727 14.587 24.182 27.364 12.021z" transform="translate(29 28)"></path></g></g></svg> 