<?xml version="1.0" encoding="UTF-8" standalone="no"?> <svg xmlns="http://www.w3.org/2000/svg" xmlns:xlink="http://www.w3.org/1999/xlink" xmlns:serif="http://www.serif.com/" width="100%" height="100%" viewBox="0 0 40 64" version="1.1" xml:space="preserve" style="fill-rule:evenodd;clip-rule:evenodd;stroke-linejoin:round;stroke-miterlimit:2;"> <path d="M5.779,39.855C5.859,39.765 5.957,39.689 6.071,39.634L6.171,39.593L19.692,35.122C19.892,35.053 20.109,35.053 20.308,35.122L33.852,39.828C34.236,39.961 34.491,40.327 34.482,40.733C34.479,40.883 34.384,44.477 32.616,49.133C30.986,53.426 27.56,59.467 20.496,63.858C20.344,63.953 20.172,64 20,64C19.828,64 19.656,63.953 19.504,63.859C12.44,59.467 9.014,53.426 7.384,49.132C5.616,44.477 5.521,40.884 5.518,40.733L5.518,40.514C5.518,40.259 5.617,40.026 5.779,39.855ZM7.423,41.153L7.428,41.215C7.519,42.306 7.854,44.997 9.054,48.24L9.165,48.536C10.657,52.436 13.742,57.883 20,61.951C26.258,57.883 29.343,52.437 30.835,48.536C32.072,45.302 32.447,42.575 32.559,41.364L20,37L20,37.001L7.423,41.153ZM24.42,44.212C24.798,43.722 25.501,43.629 25.993,44.005C26.23,44.185 26.385,44.452 26.425,44.747C26.465,45.041 26.385,45.34 26.203,45.576L19.828,53.886C19.628,54.147 19.323,54.307 18.995,54.324L18.935,54.324C18.628,54.324 18.333,54.197 18.121,53.974L14.806,50.476C14.521,50.187 14.416,49.768 14.528,49.378C14.642,48.989 14.957,48.692 15.352,48.6C15.747,48.508 16.161,48.637 16.434,48.936L18.846,51.48L24.42,44.212ZM20,0C26.05,0 30.971,4.017 30.971,8.954L30.971,14.966C30.971,17.796 29.863,20.488 27.961,22.499L27.961,26.134C27.961,26.923 28.4,27.632 29.106,27.984L36.708,31.781C38.738,32.795 40,34.833 40,37.1L40,43.021C40,44.643 38.679,45.963 37.055,45.963C36.537,45.963 36.116,45.543 36.116,45.025C36.116,44.507 36.536,44.088 37.055,44.088C37.644,44.088 38.123,43.609 38.123,43.021L38.123,37.1C38.123,35.547 37.259,34.151 35.869,33.457L28.267,29.66C26.92,28.988 26.084,27.637 26.084,26.133L26.084,24.083C25.89,24.213 25.691,24.338 25.487,24.456C25.339,24.541 25.177,24.582 25.017,24.582C24.693,24.582 24.378,24.414 24.204,24.114C23.944,23.665 24.098,23.092 24.547,22.833C27.351,21.212 29.094,18.197 29.094,14.965L29.094,8.954C29.094,5.051 25.014,1.875 20,1.875C14.986,1.875 10.906,5.051 10.906,8.954L10.906,14.966C10.906,18.196 12.648,21.211 15.45,22.832C15.9,23.092 16.052,23.665 15.792,24.112C15.618,24.413 15.303,24.581 14.979,24.581C14.819,24.581 14.658,24.54 14.509,24.454C14.307,24.337 14.109,24.214 13.916,24.084L13.916,26.134C13.916,27.637 13.08,28.989 11.733,29.661L4.131,33.458C2.741,34.152 1.877,35.548 1.877,37.1L1.877,43.022C1.877,43.61 2.357,44.089 2.945,44.089C3.463,44.089 3.884,44.509 3.884,45.026C3.884,45.544 3.464,45.964 2.945,45.964C1.321,45.964 0,44.644 0,43.022L0,37.1C0,34.833 1.261,32.795 3.292,31.78L10.894,27.984C11.6,27.632 12.039,26.923 12.039,26.134L12.039,22.5C10.138,20.49 9.029,17.797 9.029,14.967L9.029,8.954C9.03,4.017 13.951,0 20,0Z" style="fill-rule:nonzero;"></path> </svg> 