<?xml version="1.0" encoding="UTF-8"?> <svg xmlns="http://www.w3.org/2000/svg" width="70" height="64" viewBox="0 0 70 64"><path fill-rule="evenodd" d="M39.383 38.176c.302 0 .584.117.797.33 1.782 1.785 2.764 4.16 2.764 6.69 0 2.53-.982 4.905-2.764 6.69l-9.85 9.858h6.112c.621 0 1.126.506 1.126 1.128 0 .622-.505 1.128-1.126 1.128h-8.829c-.621 0-1.127-.506-1.127-1.128v-8.839c0-.622.506-1.128 1.127-1.128s1.127.506 1.127 1.128v6.114l9.847-9.856c1.357-1.359 2.105-3.168 2.105-5.095 0-1.927-.748-3.736-2.105-5.095-.213-.213-.33-.496-.33-.798 0-.301.117-.584.33-.797.212-.213.495-.33.796-.33zm3.008-17.481c.619 0 1.122.506 1.122 1.128v8.838c0 .622-.503 1.128-1.122 1.128-.619 0-1.122-.506-1.122-1.128v-6.113l-9.812 9.858c-1.352 1.36-2.097 3.169-2.097 5.095 0 1.927.745 3.736 2.097 5.095.437.44.437 1.156 0 1.595-.211.212-.492.33-.792.33-.3 0-.582-.118-.795-.33-1.775-1.784-2.753-4.16-2.753-6.69 0-2.53.978-4.905 2.753-6.69l9.815-9.86h-6.088c-.62 0-1.122-.507-1.122-1.128 0-.622.503-1.128 1.122-1.128zM35 0c3.98 0 7.889 1.098 11.307 3.176 3.41 2.074 6.17 5.023 7.982 8.53l.086.165.185.02c4.23.442 8.133 2.432 10.992 5.6C68.42 20.671 70 24.78 70 29.063c0 9.54-7.773 17.3-17.327 17.3H51.2c-.622 0-1.128-.505-1.128-1.126 0-.62.506-1.126 1.128-1.126h1.473c8.31 0 15.072-6.75 15.072-15.048 0-7.967-6.22-14.553-14.161-14.992-.416-.023-.784-.271-.961-.649C49.45 6.636 42.533 2.252 35 2.252c-9.64 0-17.923 7.169-19.266 16.675-.079.553-.559.969-1.116.969-3.336 0-6.453 1.26-8.776 3.548-2.313 2.278-3.587 5.318-3.587 8.56 0 6.676 5.44 12.107 12.127 12.107H18.8c.622 0 1.128.505 1.128 1.126 0 .62-.506 1.126-1.128 1.126h-4.418C6.452 46.363 0 39.92 0 32.003c0-7.52 5.882-13.813 13.392-14.324l.263-.018.052-.258C15.73 7.319 24.684 0 35 0z"></path></svg> 