<?xml version="1.0" encoding="UTF-8"?> <svg xmlns="http://www.w3.org/2000/svg" width="64" height="64" viewBox="0 0 64 64"><path fill-rule="evenodd" d="M58.834 40.788c-1.886 0-3.421-1.535-3.421-3.421 0-1.887 1.535-3.422 3.421-3.422 1.887 0 3.422 1.535 3.422 3.422 0 1.886-1.535 3.421-3.422 3.421zM45.606 58.49l-.222.254-.118-.315c-.728-1.93-2.246-3.476-4.167-4.243l-.28-.112.211-.216c.955-.974 1.481-2.256 1.481-3.61 0-2.848-2.317-5.165-5.166-5.165-2.848 0-5.165 2.317-5.165 5.165 0 1.354.526 2.636 1.481 3.61l.212.216-.28.112c-1.91.76-3.424 2.295-4.156 4.21l-.12.314-.22-.255c-1.719-1.99-2.665-4.523-2.665-7.133 0-6.03 4.905-10.935 10.935-10.935S48.302 45.29 48.302 51.32c0 2.626-.958 5.172-2.696 7.168zm-11.682-8.242c0-1.886 1.535-3.421 3.421-3.421 1.887 0 3.422 1.535 3.422 3.421 0 1.887-1.535 3.422-3.422 3.422-1.886 0-3.421-1.535-3.421-3.422zm9.863 9.906c-1.886 1.376-4.106 2.103-6.42 2.103-2.33 0-4.564-.737-6.458-2.132l-.103-.075.024-.125c.511-2.614 2.8-4.511 5.442-4.511h2.147c2.658 0 4.949 1.91 5.447 4.54l.024.125-.103.075zM25.042 36.466l.126-.136c2.2-2.362 3.41-5.425 3.41-8.624 0-1.337-.216-2.67-.642-3.96l-.058-.177 12.146-5.147.086.163c1.296 2.45 3.402 4.441 5.93 5.606l.167.077L40.84 39.14l-.178-.048c-1.108-.299-2.217-.45-3.296-.45-2.8 0-5.464.91-7.704 2.633l-.147.113-4.474-4.922zm-1.125-1.337l-.119-.315c-.727-1.93-2.246-3.477-4.166-4.243l-.28-.112.21-.216c.956-.975 1.482-2.257 1.482-3.61 0-2.848-2.318-5.165-5.166-5.165-2.848 0-5.166 2.317-5.166 5.165 0 1.354.527 2.636 1.482 3.61l.212.216-.281.112c-1.909.76-3.423 2.295-4.156 4.209l-.12.314-.22-.254c-1.718-1.99-2.665-4.523-2.665-7.134 0-6.029 4.906-10.935 10.935-10.935 6.03 0 10.935 4.906 10.935 10.935 0 2.627-.957 5.173-2.696 7.169l-.221.254zm-11.46-8.496c0-1.886 1.534-3.421 3.42-3.421 1.887 0 3.422 1.535 3.422 3.421 0 1.887-1.535 3.422-3.421 3.422-1.887 0-3.421-1.535-3.421-3.422zm9.863 9.906c-1.887 1.375-4.107 2.103-6.42 2.103-2.331 0-4.564-.737-6.459-2.132l-.103-.075.025-.126c.51-2.613 2.799-4.51 5.442-4.51h2.146c2.658 0 4.95 1.909 5.448 4.54l.024.125-.103.075zm29-34.795c6.03 0 10.936 4.906 10.936 10.935 0 2.62-.953 5.159-2.682 7.15l-.22.255-.12-.314c-.73-1.922-2.246-3.462-4.16-4.227l-.281-.112.212-.216c.955-.973 1.481-2.255 1.481-3.61 0-2.847-2.317-5.165-5.165-5.165-2.849 0-5.166 2.318-5.166 5.166 0 1.354.526 2.636 1.482 3.61l.212.215-.281.112c-1.915.765-3.431 2.305-4.16 4.227l-.12.314-.221-.254c-1.729-1.992-2.681-4.532-2.681-7.15 0-6.03 4.905-10.936 10.935-10.936zm-3.42 9.862c0-1.887 1.534-3.422 3.42-3.422 1.887 0 3.422 1.535 3.422 3.422 0 1.886-1.535 3.421-3.421 3.421-1.887 0-3.422-1.535-3.422-3.421zm9.86 9.891c-1.891 1.385-4.118 2.117-6.44 2.117-2.32 0-4.547-.732-6.44-2.117l-.102-.075.024-.125c.506-2.622 2.796-4.526 5.445-4.526h2.147c2.65 0 4.94 1.904 5.446 4.526l.024.125-.103.075zM8.588 47.027c0 1.887-1.535 3.422-3.421 3.422-1.887 0-3.422-1.535-3.422-3.422 0-1.886 1.535-3.421 3.422-3.421 1.886 0 3.421 1.535 3.421 3.421zm22.34-38.44c-1.887 0-3.422-1.535-3.422-3.421 0-1.887 1.535-3.422 3.422-3.422 1.886 0 3.421 1.535 3.421 3.422 0 1.886-1.535 3.421-3.421 3.421zm27.907 23.614c-2.848 0-5.165 2.318-5.165 5.166 0 .632.124 1.267.369 1.887l.06.153-6.612 4.3-.114-.147c-1.249-1.605-2.882-2.902-4.723-3.75l-.167-.078 5.364-14.872.18.048c1.107.3 2.216.45 3.295.45C58.312 25.358 64 19.671 64 12.68 64 5.688 58.312 0 51.32 0c-4.888 0-9.393 2.876-11.477 7.327l-.078.167L35.988 6.1l.025-.162c.04-.264.08-.513.08-.772C36.092 2.317 33.774 0 30.926 0c-2.849 0-5.166 2.317-5.166 5.166 0 2.848 2.317 5.165 5.166 5.165 1.784 0 3.42-.917 4.375-2.453l.087-.14 3.77 1.393-.048.178c-.312 1.125-.47 2.259-.47 3.37 0 1.338.217 2.67.643 3.961l.058.176-12.146 5.148-.086-.163c-2.21-4.178-6.506-6.774-11.21-6.774-1.508 0-3.01.278-4.462.826l-1.922.916C5.632 19.045 3.22 23.235 3.22 27.706c0 4.226 2.103 8.162 5.626 10.53l.154.103-2.133 3.834-.157-.05c-.568-.178-1.059-.261-1.544-.261C2.317 41.862 0 44.179 0 47.027c0 2.849 2.317 5.166 5.166 5.166 2.848 0 5.165-2.317 5.165-5.166 0-1.484-.662-2.905-1.816-3.898l-.124-.107 2.137-3.842.17.076c1.655.75 3.405 1.13 5.201 1.13 2.8 0 5.464-.91 7.705-2.634l.147-.113 4.474 4.922-.126.136c-2.2 2.362-3.411 5.425-3.411 8.624 0 .573.05 1.174.156 1.888l.487 2.074C27.05 60.497 31.887 64 37.367 64c6.991 0 12.68-5.688 12.68-12.68 0-2.088-.524-4.161-1.513-5.994l-.088-.163 6.598-4.29.115.117c.983.995 2.288 1.542 3.675 1.542 2.849 0 5.166-2.317 5.166-5.165S61.683 32.2 58.834 32.2z"></path></svg> 