<?xml version="1.0" encoding="UTF-8"?> <svg xmlns="http://www.w3.org/2000/svg" width="48" height="64" viewBox="0 0 48 64"><path fill-rule="evenodd" d="M24.093 0c3.617.026 7.008 1.457 9.549 4.031 2.54 2.574 3.926 5.983 3.9 9.601v9.819h5.501c2.73.003 4.954 2.226 4.957 4.954v30.64c-.003 2.729-2.227 4.952-4.957 4.955H4.957C2.227 63.997.003 61.774 0 59.046v-30.64c.003-2.73 2.227-4.952 4.957-4.955h5.5v-9.82-.186C10.508 5.981 16.624-.052 24.093 0zm18.95 25.227H4.956c-1.751.002-3.177 1.428-3.18 3.178v30.64c.003 1.751 1.429 3.177 3.18 3.179h38.088c1.75-.002 3.177-1.428 3.18-3.178v-30.64c-.003-1.75-1.43-3.177-3.18-3.179zM24 31.645l.302.004c6.519.168 11.779 5.525 11.787 12.08 0 6.663-5.424 12.083-12.09 12.083-3.229 0-6.264-1.257-8.547-3.54-2.284-2.282-3.54-5.317-3.54-8.544 0-3.228 1.257-6.262 3.54-8.544 2.284-2.282 5.32-3.539 8.548-3.539zm0 1.776c-2.755 0-5.344 1.072-7.292 3.019-1.948 1.947-3.02 4.535-3.02 7.288 0 5.684 4.627 10.307 10.313 10.307l.242-.001c5.568-.138 10.063-4.71 10.069-10.307 0-2.753-1.073-5.341-3.02-7.288-1.949-1.947-4.538-3.018-7.292-3.018zm4.182 5.572c.298-.388.857-.462 1.246-.164l.012.009c.183.144.3.35.33.581.032.235-.03.468-.175.656l-6.429 8.387c-.159.207-.4.333-.647.346h-.06c-.243 0-.478-.101-.645-.278l-3.347-3.533-.023-.024c-.33-.362-.304-.925.058-1.255.17-.154.383-.23.597-.23.242 0 .484.098.661.292l2.628 2.773zM24.001 6.64c-3.858 0-6.995 3.136-6.995 6.991v9.821h13.989v-9.82c0-3.856-3.138-6.992-6.995-6.992zm0-4.854h-.09c-6.486.049-11.725 5.363-11.677 11.848v9.818h2.994v-9.82c0-4.835 3.934-8.768 8.771-8.768 4.837 0 8.771 3.933 8.771 8.767v9.821h2.996v-9.817-.176C35.718 7.003 30.449 1.785 24 1.785z"></path></svg> 