<?xml version="1.0" encoding="UTF-8"?> <svg xmlns="http://www.w3.org/2000/svg" width="88" height="88" viewBox="0 0 88 88"><path fill-opacity=".25" fill-rule="evenodd" d="M59.35 55.21c.308 0 .596.137.789.377l3.717 4.614h23.132v-.559l.002.56c.558 0 1.01.45 1.01 1.006v25.786C88 87.55 87.546 88 86.988 88H44c-.558 0-1.012-.451-1.012-1.006v-30.78c0-.554.454-1.004 1.012-1.004zm-.487 2.012H45.012v28.766h40.964l-.003-23.776H63.369c-.309 0-.596-.137-.789-.376l-3.717-4.614zm-48.177-11.27c.443-.383 1.117-.337 1.49.086l5.286 6.535c.17.21.247.472.218.74-.03.266-.162.506-.373.675-.21.168-.475.246-.743.216-.27-.03-.51-.16-.68-.37l-3.484-4.31v13.183c.005 3.298 2.707 5.982 6.025 5.986h13.873c.558 0 1.012.451 1.012 1.005 0 .555-.454 1.006-1.012 1.006H18.425c-4.432-.005-8.042-3.593-8.048-7.997V49.523l-3.482 4.31c-.17.21-.41.34-.68.37-.267.029-.532-.047-.742-.216-.211-.168-.344-.408-.373-.675-.03-.267.048-.53.217-.739l5.272-6.525c.03-.033.063-.066.097-.095zm58.889-28.656c4.432.005 8.042 3.593 8.048 7.997v13.184l3.482-4.31c.17-.21.41-.34.68-.37.267-.029.532.047.743.216.435.347.504.981.155 1.414l-5.281 6.535c-.046.057-.098.11-.156.155-.435.347-1.072.277-1.421-.155l-5.287-6.535c-.35-.433-.28-1.067.155-1.415.181-.145.402-.222.632-.222.037 0 .074.002.111.006.27.03.51.16.68.37l3.484 4.31V25.293c-.005-3.297-2.707-5.982-6.025-5.986H55.702c-.558 0-1.012-.45-1.012-1.005 0-.555.454-1.006 1.012-1.006zM16.365 0c.308 0 .596.138.79.378l3.717 4.613H44c.558 0 1.012.451 1.012 1.006v25.787h.562l-.562.001c0 .268-.106.52-.297.71-.19.19-.445.294-.714.294H1.01C.452 32.79 0 32.338 0 31.784V1.006C0 .45.454 0 1.012 0zm-.487 2.011H2.024v28.767h40.964V7.002H20.385c-.309 0-.596-.137-.79-.377l-3.717-4.614z"></path></svg> 