<?xml version="1.0" encoding="UTF-8"?> <svg xmlns="http://www.w3.org/2000/svg" width="64" height="64" viewBox="0 0 64 64"><path fill-rule="evenodd" d="M60.034 28.18c.607 0 1.1.49 1.1 1.092 0 15.47-12.169 28.335-27.704 29.288l-.562.034 3.562 3.539c.207.206.322.48.322.772 0 .293-.115.567-.323.774-.206.207-.482.321-.776.321-.293 0-.57-.114-.78-.319L29.457 58.3c-.429-.427-.429-1.12 0-1.546l5.418-5.382c.215-.213.496-.32.778-.32.282 0 .564.107.778.32.43.426.43 1.12 0 1.546l-3.514 3.49.68-.05c6.865-.496 13.248-3.537 17.973-8.562 4.749-5.05 7.364-11.628 7.364-18.524 0-.603.494-1.093 1.1-1.093zM8.492 11.02c.59-.148 1.172.188 1.325.768l2.06 7.769c.155.58-.187 1.179-.757 1.334-.101.026-.194.038-.285.038-.487 0-.915-.331-1.042-.806L8.56 15.47l-.3.532c-2.255 4-3.446 8.572-3.446 13.223 0 11.467 7.181 21.711 17.87 25.493l.108.045c.489.236.734.813.552 1.343-.152.436-.56.73-1.019.73-.122 0-.243-.02-.358-.061-11.55-4.09-19.31-15.161-19.31-27.55 0-5.338 1.44-10.542 4.166-15.05l.324-.537-5.786 1.566c-.579.148-1.173-.198-1.324-.77-.152-.58.19-1.178.764-1.334zm23.27 5.219c3.378 0 6.668.468 9.027 1.284 1.874.648 4.107 1.836 4.107 3.819v16.062c0 1.983-2.233 3.172-4.107 3.82-2.359.816-5.65 1.283-9.028 1.283s-6.669-.467-9.028-1.283c-1.873-.648-4.106-1.837-4.106-3.82V21.342c0-1.983 2.233-3.171 4.106-3.82 2.36-.815 5.65-1.283 9.028-1.283zM42.72 32.346l-.365.188c-2.372 1.216-6.332 1.942-10.594 1.942s-8.222-.726-10.594-1.942l-.365-.188v5.058c0 1.033 4.16 2.928 10.96 2.928 6.798 0 10.958-1.895 10.958-2.928v-5.058zm0-8.03l-.365.187c-2.371 1.216-6.332 1.942-10.594 1.942s-8.222-.726-10.594-1.942l-.365-.188v5.058c0 1.032 4.16 2.928 10.96 2.928 6.798 0 10.958-1.896 10.958-2.928v-5.058zm-10.959-5.902c-6.798 0-10.96 1.896-10.96 2.928s4.162 2.928 10.96 2.928c6.799 0 10.96-1.896 10.96-2.928s-4.161-2.928-10.96-2.928zM31.924 0c5.852 0 11.514 1.71 16.374 4.946 4.844 3.224 8.572 7.747 10.78 13.079l.195.471 2.686-4.609c.146-.252.383-.432.666-.506.281-.075.575-.036.828.11l.1.064c.444.322.582.933.301 1.417l-4.04 6.933c-.197.335-.56.543-.949.543-.196 0-.38-.049-.547-.145l-7-4.004c-.52-.298-.7-.963-.4-1.482.147-.252.383-.431.666-.506.093-.025.188-.037.282-.037.19 0 .378.05.547.147l4.77 2.728-.3-.691c-4.28-9.896-14.077-16.29-24.959-16.29-6.187 0-11.987 2.012-16.771 5.818-.473.372-1.164.299-1.54-.164-.377-.466-.301-1.15.168-1.525C18.957 2.177 25.231 0 31.924 0z"></path></svg> 