<?xml version="1.0" encoding="UTF-8"?> <svg xmlns="http://www.w3.org/2000/svg" width="63" height="88" viewBox="0 0 63 88"><path fill-opacity=".25" fill-rule="evenodd" d="M45.46 0c4.883 0 9.23 2.928 11.073 7.459l.362.89.653-.706c1.224-1.324 2.873-2.057 4.639-2.064.026 0 .051-.002.074-.004.411.024.739.366.739.783V27.24c-.014.052-.026.1-.034.146l-.015.102-.012.087c-.04.097-.099.183-.18.262l-5.344 5.338v13.582c-.014.053-.026.1-.035.15l-.015.108-.01.077c-.04.097-.1.183-.18.26l-3.941 3.926v12.181c-.005.03-.008.065-.008.104v9.641c-.006.027-.01.06-.012.098-.003.049-.016.109-.043.195l-.019.058-.012.043c-.024.048-.04.092-.05.127l-4.049 6.738v3.962c0 1.955-1.594 3.556-3.55 3.57-.03 0-.059.002-.084.005H17.541c-1.974 0-3.58-1.604-3.58-3.575v-3.962L9.92 73.74c-.01-.032-.025-.071-.047-.115-.012-.023-.026-.073-.046-.143-.017-.059-.033-.119-.035-.143-.002-.05-.01-.094-.018-.129v-21.9L5.82 47.35c-.075-.074-.134-.161-.176-.263-.013-.03-.023-.12-.03-.185l-.015-.098-.014-.064V33.175l-5.34-5.332c-.066-.067-.12-.14-.162-.224-.005-.03-.014-.067-.027-.106-.03-.095-.056-.178-.056-.242V6.358c0-.408.314-.745.713-.781l.098.002c1.77.007 3.418.74 4.641 2.064l.652.705.363-.89C8.312 2.929 12.659 0 17.54 0zM18.15 81.03h-2.618v3.395c0 1.105.9 2.005 2.006 2.007h.612V81.03zm4.188 0h-2.617v5.402h2.617V81.03zm4.189 0h-2.618v5.402h2.618V81.03zm4.188 0h-2.617v5.402h2.617V81.03zm4.189 0h-2.618v5.402h2.618V81.03zm4.188 0h-2.618v5.402h2.618V81.03zm4.189 0h-2.618v5.402h2.618V81.03zm4.19 0h-2.62l.002 5.4h.61c1.107 0 2.008-.9 2.008-2.005V81.03zm4.184-9.759H11.347v1.793l3.844 6.397h32.62l3.844-6.395v-1.795zm-29.317-6.964h-2.617v5.396h2.617v-5.396zm-8.376 0h-2.615v5.396h2.615v-5.396zm4.188 0h-2.618v5.396h2.618v-5.396zm8.377 0h-2.618v5.396h2.618v-5.396zm20.942 0h-2.618v5.396h2.618v-5.396zm4.186 0H49.04v5.396h2.615v-5.396zm-8.374 0h-2.618v5.396h2.618v-5.396zm-4.189 0h-2.618v5.396h2.618v-5.396zm-4.188 0h-2.618v5.396h2.618v-5.396zm-4.189 0h-2.617v5.396h2.617v-5.396zM51.663 51.77H11.347v10.967l40.316-.003V51.771zm-13.182 2.69c.385 0 .699.313.699.697v4.182c0 .385-.314.697-.699.697H24.52c-.385 0-.698-.312-.698-.697v-4.182c0-.384.313-.697.698-.697zm-.698 1.394H25.218v2.788h5.589v-.697c0-.384.313-.697.698-.697.385 0 .698.313.698.697v.697h5.58v-2.788zm16.943-8.277H8.264l2.622 2.625h41.203l2.637-2.625zm-24.01-9.761H28.1v8.193h2.618v-8.193zm-4.188 0h-2.617v8.193h2.617v-8.193zm-4.188 0h-2.618v8.193h2.618v-8.193zm-4.189 0h-2.617v8.193h2.617v-8.193zm-4.188 0h-2.618v8.193h2.618v-8.193zm-4.189 0H7.157v8.193h2.617v-8.193zm25.131 0h-2.618v8.193h2.618v-8.193zm4.189 0h-2.618v8.193h2.618v-8.193zm4.188 0h-2.618v8.193h2.618v-8.193zm4.189 0h-2.618v8.193h2.618v-8.193zm4.188 0h-2.618v8.193h2.618v-8.193zm4.186 0H53.23v8.193h2.615v-8.193zm0-4.183l-48.688.003v2.611h48.688v-2.614zm4.473-5.573H2.688l4.008 4.005h49.61l4.012-4.005zM45.46 1.568H17.54c-5.726 0-10.384 4.652-10.384 10.369 0 .432-.353.784-.786.784-.433 0-.785-.352-.785-.784 0-2.01-1.285-3.818-3.198-4.5l-.816-.29v19.346H61.43V7.147l-.816.29c-1.912.682-3.196 2.49-3.196 4.5 0 .432-.353.784-.787.784-.433 0-.785-.352-.785-.784 0-5.717-4.658-10.369-10.384-10.369z"></path></svg> 