<?xml version="1.0" encoding="UTF-8"?> <svg xmlns="http://www.w3.org/2000/svg" width="88" height="88" viewBox="0 0 88 88"><path fill-opacity=".25" fill-rule="evenodd" d="M83.04.85c1.133-1.133 2.976-1.133 4.108 0 1.132 1.132 1.132 2.975 0 4.108l-2 2.002.648.651c.387.387.387 1.018 0 1.405l-13.42 13.42h10.89c2.61 0 4.734 2.124 4.734 4.734v56.097C88 85.877 85.877 88 83.267 88H4.733C2.123 88 0 85.877 0 83.267V27.17c0-2.61 2.123-4.734 4.733-4.734h54.013L78.982 2.202c.387-.388 1.017-.388 1.405 0l.65.649zm2.973 66.581H16.946v18.582h66.32c1.515 0 2.747-1.232 2.747-2.746V67.43zM14.96 24.423H4.733c-1.514 0-2.746 1.232-2.746 2.747v56.097c0 .733.285 1.423.804 1.942.519.519 1.209.804 1.942.804H14.96v-61.59zm37.513 54.111v1.987h-9.466v-1.987h9.466zm7.48 0v1.987h-1.986v-1.987h1.987zm-50.486-7.48v9.466H7.48v-9.466h1.987zm22.438 1.87v1.987h-9.466v-1.986h9.466zm48.616 0v1.987h-9.466v-1.986h9.466zm-45.87-31.26L16.947 59.368v6.075h69.067v-5.493h-8.356c-.265 0-.514-.103-.702-.29L61.764 44.467l-10.75 10.75 2.418 2.418-1.405 1.404-17.376-17.377zm48.617-17.241H70.39l-14.35 14.35c-.09.09-.196.162-.316.213l-.784.335.001.004-8.68 3.721c-.12.05-.247.076-.383.076-.266-.004-.521-.102-.71-.291-.188-.188-.291-.437-.291-.703 0-.135.027-.266.08-.39l4.037-9.42.01-.022c.048-.123.119-.233.21-.327l7.545-7.546H16.945V56.56l17.003-17.003c.388-.387 1.018-.387 1.405 0L49.61 53.814 61.06 42.362c.388-.388 1.018-.388 1.405 0l15.602 15.602h7.945V27.17c0-1.514-1.232-2.746-2.746-2.746zm-9.35 5.493c3.642 0 6.604 2.962 6.604 6.603 0 3.641-2.962 6.603-6.603 6.603-3.641 0-6.603-2.962-6.603-6.603 0-3.64 2.962-6.603 6.603-6.603zm0 1.987c-1.232 0-2.391.48-3.264 1.352-.871.872-1.352 2.031-1.351 3.264 0 2.545 2.07 4.616 4.616 4.616 2.545 0 4.616-2.07 4.616-4.616 0-2.545-2.07-4.616-4.616-4.616zM50.262 34.4l-2.51 5.845 5.85-2.506-3.34-3.34zM9.466 29.916v9.466H7.48v-9.466h1.987zm51.284-6.672l-9.418 9.417 4.005 4.006 9.418-9.419-4.005-4.004zM79.684 4.31L62.154 21.84l4.006 4.005 17.53-17.53-4.006-4.004zm4.834-2.01l-2.062 1.972 1.286 1.285 2.002-2.004L84.518 2.3z"></path></svg> 