<?xml version="1.0" encoding="UTF-8"?> <svg xmlns="http://www.w3.org/2000/svg" width="121" height="88" viewBox="0 0 121 88"><path fill-opacity=".25" fill-rule="evenodd" d="M121 0v75.757H73.93v9.947H92.35V88H32.744v-2.296H47.07v-9.947H0V0h121zM71.628 75.757H49.372v9.947h22.256v-9.947zm47.07-73.461H2.302V73.46h116.396V2.296zM32.503 40.7c.541 0 .98.437.98.977v17.682c0 .54-.439.977-.98.977H14.77c-.542 0-.98-.437-.98-.977V41.677c0-.54.438-.977.98-.977zm24.106 0c.541 0 .98.437.98.977v17.682c0 .54-.439.977-.98.977H38.875c-.54 0-.98-.437-.98-.977V41.677c0-.54.44-.977.98-.977zm24.106 0c.541 0 .98.437.98.977v17.682c0 .54-.439.977-.98.977H62.98c-.541 0-.98-.437-.98-.977V41.677c0-.54.439-.977.98-.977zm24.105 0c.542 0 .98.437.98.977v17.682c0 .54-.438.977-.98.977H87.087c-.541 0-.98-.437-.98-.977V41.677c0-.54.439-.977.98-.977zm-73.297 1.954H15.75v15.63h15.774v-15.63zm24.106 0H39.855v15.63H55.63v-15.63zm24.106 0H63.96v15.63h15.774v-15.63zm24.106 0H88.067v15.63h15.774v-15.63zm-50.724 3.18l1.012.966-8.58 8.2-3.993-3.816 1.011-.967 2.982 2.85 7.568-7.234zM32.503 16.5c.541 0 .98.437.98.977v17.682c0 .54-.439.977-.98.977H14.77c-.542 0-.98-.437-.98-.977V17.477c0-.54.438-.977.98-.977zm24.106 0c.541 0 .98.437.98.977v17.682c0 .54-.439.977-.98.977H38.875c-.54 0-.98-.437-.98-.977V17.477c0-.54.44-.977.98-.977zm24.106 0c.541 0 .98.437.98.977v17.682c0 .54-.439.977-.98.977H62.98c-.541 0-.98-.437-.98-.977V17.477c0-.54.439-.977.98-.977zm24.105 0c.542 0 .98.437.98.977v17.682c0 .54-.438.977-.98.977H87.087c-.541 0-.98-.437-.98-.977V17.477c0-.54.439-.977.98-.977zm-73.297 1.954H15.75v15.728h15.774V18.454zm24.106 0H39.855v15.728H55.63V18.454zm24.106 0H63.96v15.728h15.774V18.454zm24.106 0H88.067v15.728h15.774V18.454zm-2.14 2.63l1.01.966-8.579 8.2-3.993-3.816 1.012-.967 2.981 2.85 7.568-7.234z"></path></svg> 