<?xml version="1.0" encoding="UTF-8"?> <svg xmlns="http://www.w3.org/2000/svg" width="256" height="256" viewBox="0 0 256 256"><g fill="none" fill-rule="evenodd"><path fill="#000" d="M255.21 127.605c0 70.474-57.13 127.605-127.605 127.605C57.131 255.21 0 198.08 0 127.605 0 57.131 57.131 0 127.605 0 198.081 0 255.21 57.131 255.21 127.605z"></path><path fill="#FFF" d="M113.393 82.956c11.608 0 17.598 7.044 17.598 18.351v65.064c0 11.306-5.99 18.35-17.598 18.35h-.373c-8.052 0-13.48-3.706-18.35-7.785V204H84V84.067h10.67v6.86c4.87-4.265 10.298-7.97 18.35-7.97h.373zM172 52v10.008h-5.43c-5.24 0-7.677 2.597-7.677 7.97v14.09h12.545v9.823h-12.545v89.72h-10.856V93.89h-6.552v-9.824h6.552V70.351c0-12.236 5.803-18.351 18.157-18.351H172zm-61.79 41.15h-.376c-5.24 0-9.734 2.225-15.163 6.674v67.843c5.43 4.635 10.11 6.86 15.163 6.86h.377c6.551 0 10.11-2.781 10.11-9.269v-62.84c0-6.487-3.559-9.269-10.11-9.269z"></path></g></svg> 